# xmcd
#
# Track frame offsets:
#        150
#        11425
#        22600
#        34815
#        49173
#        63288
#        75910
#        92473
#        104713
#        115540
#        127385
#        139620
#        149550
#        165168
#        181640
#        191490
#        208540
#        221190
#        231265
#        243768
#        254333
#        266308
#        278933
#        291565
#
# Disc length: 4106 seconds
#
# Revision: 2
# Processed by: cddbd v1.5.1PL2 Copyright (c) Steve Scherf et al.
# Submitted via: ExactAudioCopy v0.95b2
#
DISCID=4e100818
DTITLE=Various Artist - BIG SUPER ARTIST BEST SELECTION
DYEAR=1900
DGENRE=Pop
TTITLE0=The Beach Boys - Surfin' U.S.A.
TTITLE1=The Beatles - I Want To Hold Your Hand
TTITLE2=Mama's and Papa's - California Dreamin'
TTITLE3=Simon and Garfunkel - Scarborough Fair,Canticle
TTITLE4=The Monkees - Daydream Believer
TTITLE5=Elvis Presley - Love Me Tender
TTITLE6=Ray Charles - Georgia On My Mind
TTITLE7=Diana Ross and Supremes - I Hear A Symphony
TTITLE8=The Bee Gees - Massachusetts
TTITLE9=Stevie Wonder - I Was Made To Love Her
TTITLE10=The Beatles - Michelle
TTITLE11=The Lettermen - Seald With A Kiss
TTITLE12=Louis Armstrong - La Vie En Rose
TTITLE13=The Beach Boys - Good Vibration
TTITLE14=Elvis Presley - Heart Break Hotel
TTITLE15=Doris Day - Sentimental Journey
TTITLE16=Sarah Vaughan - A Lover's Concerto
TTITLE17=Bill Haley and His Comets - (We're Gonna)Rock Around The Clock
TTITLE18=Chuck Berry - Johnny B. Goode
TTITLE19=The Monkees - Theme From The Monkees
TTITLE20=Chubby Checker - The Twist
TTITLE21=Diana Ross and Supremes - You Can't Hurry Love
TTITLE22=Bob Dylan - Blowin' In The Wind
TTITLE23=The Rolling Stones - Let's Spend The Night Together
EXTD=
EXTT0=
EXTT1=
EXTT2=
EXTT3=
EXTT4=
EXTT5=
EXTT6=
EXTT7=
EXTT8=
EXTT9=
EXTT10=
EXTT11=
EXTT12=
EXTT13=
EXTT14=
EXTT15=
EXTT16=
EXTT17=
EXTT18=
EXTT19=
EXTT20=
EXTT21=
EXTT22=
EXTT23=
PLAYORDER=
